<svg xmlns="http://www.w3.org/2000/svg" xmlns:xlink="http://www.w3.org/1999/xlink" width="500" zoomAndPan="magnify" viewBox="0 0 375 374.999991" height="500" preserveAspectRatio="xMidYMid meet" version="1.0"><defs><g/></defs><rect x="-37.5" width="450" fill="#ffffff" y="-37.499999" height="449.999989" fill-opacity="1"/><rect x="-37.5" width="450" fill="#ffffff" y="-37.499999" height="449.999989" fill-opacity="1"/><g fill="#2e5da1" fill-opacity="1"><g transform="translate(4.959271, 362.001267)"><g><path d="M 6.578125 -342.890625 L 173.421875 -342.890625 L 173.421875 -283 C 168.804688 -286.0625 164.25 -288.46875 159.75 -290.21875 C 155.257812 -291.976562 149.773438 -293.296875 143.296875 -294.171875 C 136.828125 -295.054688 128.328125 -295.5 117.796875 -295.5 L 117.796875 -83.578125 C 117.796875 -84.015625 117.796875 -84.125 117.796875 -83.90625 C 117.796875 -83.6875 117.796875 -83.03125 117.796875 -81.9375 L 117.796875 -83.578125 C 117.796875 -82.484375 117.851562 -79.300781 117.96875 -74.03125 C 118.082031 -68.769531 118.359375 -62.460938 118.796875 -55.109375 C 119.234375 -47.765625 119.941406 -40.304688 120.921875 -32.734375 C 121.910156 -25.171875 123.171875 -18.425781 124.703125 -12.5 C 126.242188 -6.582031 128.222656 -2.414062 130.640625 0 L 49.6875 0 C 52.101562 -2.195312 54.078125 -6.3125 55.609375 -12.34375 C 57.148438 -18.375 58.410156 -25.171875 59.390625 -32.734375 C 60.378906 -40.304688 61.09375 -47.765625 61.53125 -55.109375 C 61.96875 -62.460938 62.238281 -68.769531 62.34375 -74.03125 C 62.457031 -79.300781 62.515625 -82.484375 62.515625 -83.578125 C 62.734375 -82.484375 62.898438 -81.769531 63.015625 -81.4375 C 63.128906 -81.113281 63.070312 -81.28125 62.84375 -81.9375 C 62.625 -83.03125 62.566406 -83.6875 62.671875 -83.90625 C 62.785156 -84.125 62.734375 -84.015625 62.515625 -83.578125 C 62.515625 -86.867188 62.515625 -93.007812 62.515625 -102 C 62.515625 -111 62.515625 -121.859375 62.515625 -134.578125 C 62.515625 -147.304688 62.515625 -160.800781 62.515625 -175.0625 C 62.515625 -189.320312 62.515625 -203.359375 62.515625 -217.171875 C 62.515625 -230.992188 62.515625 -243.71875 62.515625 -255.34375 C 62.515625 -266.976562 62.515625 -276.414062 62.515625 -283.65625 C 62.515625 -290.894531 62.515625 -294.84375 62.515625 -295.5 C 51.992188 -295.5 43.492188 -295.054688 37.015625 -294.171875 C 30.546875 -293.296875 25.0625 -291.976562 20.5625 -290.21875 C 16.070312 -288.46875 11.410156 -286.0625 6.578125 -283 Z M 6.578125 -342.890625 "/></g></g></g><g fill="#2e5da1" fill-opacity="1"><g transform="translate(184.95145, 362.001267)"><g><path d="M 9.875 0 C 12.0625 -1.976562 13.757812 -5.765625 14.96875 -11.359375 C 16.175781 -16.953125 17 -23.421875 17.4375 -30.765625 C 17.875 -38.117188 18.203125 -45.632812 18.421875 -53.3125 C 18.640625 -60.988281 18.691406 -68.003906 18.578125 -74.359375 C 18.472656 -80.722656 18.421875 -85.660156 18.421875 -89.171875 L 18.421875 -253.703125 C 18.421875 -257.210938 18.472656 -262.148438 18.578125 -268.515625 C 18.691406 -274.878906 18.640625 -281.898438 18.421875 -289.578125 C 18.203125 -297.253906 17.875 -304.765625 17.4375 -312.109375 C 17 -319.460938 16.175781 -325.9375 14.96875 -331.53125 C 13.757812 -337.125 12.0625 -340.910156 9.875 -342.890625 L 82.921875 -342.890625 C 111.660156 -342.890625 134.203125 -335.757812 150.546875 -321.5 C 166.890625 -307.238281 175.0625 -284.09375 175.0625 -252.0625 C 175.0625 -235.832031 172.265625 -220.96875 166.671875 -207.46875 C 161.078125 -193.976562 153.453125 -182.019531 143.796875 -171.59375 C 134.148438 -161.175781 123.289062 -152.289062 111.21875 -144.9375 C 99.15625 -137.59375 86.648438 -131.945312 73.703125 -128 C 73.703125 -128 73.753906 -125.914062 73.859375 -121.75 C 73.972656 -117.582031 74.03125 -112.535156 74.03125 -106.609375 C 74.03125 -100.691406 74.03125 -94.878906 74.03125 -89.171875 C 74.03125 -85.660156 73.972656 -80.722656 73.859375 -74.359375 C 73.753906 -68.003906 73.8125 -60.988281 74.03125 -53.3125 C 74.257812 -45.632812 74.59375 -38.117188 75.03125 -30.765625 C 75.46875 -23.421875 76.285156 -16.953125 77.484375 -11.359375 C 78.691406 -5.765625 80.394531 -1.976562 82.59375 0 Z M 73.703125 -188.875 C 82.046875 -188.875 89.671875 -191.835938 96.578125 -197.765625 C 103.484375 -203.691406 109.019531 -211.476562 113.1875 -221.125 C 117.363281 -230.78125 119.453125 -241.203125 119.453125 -252.390625 C 119.453125 -263.796875 116.816406 -273.0625 111.546875 -280.1875 C 106.285156 -287.320312 98.171875 -290.890625 87.203125 -290.890625 L 73.703125 -290.890625 Z M 73.703125 -188.875 "/></g></g></g></svg>